<svg width="64" height="64" viewBox="0 0 64 64" fill="none" xmlns="http://www.w3.org/2000/svg">
<g clip-path="url(#clip0_0_1)">
<path d="M35.6027 40.2738C32.7426 40.5461 29.6486 37.0428 26.4143 37.0428C22.9544 37.0428 19.6516 40.5227 16.6261 40.212C8.3431 39.365 2.13506 37.4738 0.469446 35.1767C0.943903 38.5915 1.80261 41.8208 2.95367 44.8129C3.24937 45.1102 3.5434 45.4026 3.85079 45.7083C4.70949 46.6589 5.84218 47.4174 6.86627 48.3479C8.01733 49.1264 9.15002 50.0085 10.4414 50.6868C11.671 51.4703 13.0459 52.025 14.3824 52.6481C15.774 53.1359 17.144 53.7039 18.5707 54.0046C19.969 54.419 21.394 54.5843 22.7623 54.8333C24.1456 54.8851 25.4854 55.134 26.7634 55.0588C27.4033 55.0521 28.0264 55.0488 28.6295 55.0421C29.2293 54.9803 29.809 54.9151 30.3653 54.8567C31.4863 54.7681 32.492 54.5626 33.3958 54.3922C33.8485 54.3087 34.2695 54.2268 34.6621 54.155C35.0447 54.0447 35.3939 53.9428 35.7113 53.8493C36.9927 53.4951 37.7261 53.293 37.7261 53.293C37.7261 53.293 37.0328 53.607 35.8165 54.1583C35.5091 54.292 35.1683 54.439 34.7991 54.5994C34.4149 54.7197 33.9989 54.8533 33.5545 54.9937C32.6657 55.286 31.6567 55.6285 30.5123 55.7872C29.9426 55.8908 29.3512 56.001 28.7381 56.113C28.115 56.1648 27.4718 56.2182 26.8102 56.2767C25.4837 56.4521 24.0771 56.3235 22.6203 56.3001C21.1835 56.0846 19.6649 56.0044 18.1898 55.5717C16.6829 55.271 15.2294 54.7013 13.7559 54.1951C12.3509 53.5235 10.9125 52.9154 9.62614 52.0734C8.27127 51.3484 7.12856 50.3476 5.95244 49.4923C5.4145 48.9861 4.86987 48.5033 4.35365 48.0171C9.06649 57.6299 17.1724 64 26.4159 64C39.3466 64 50.087 51.5739 52.3607 35.1767C50.6534 37.5323 44.183 39.4568 35.6027 40.2738Z" fill="#010002"/>
<path d="M35.3638 36.0554C38.6566 35.4256 38.5848 34.6855 38.5564 34.4032C38.4762 33.6497 37.4053 33.6497 36.8908 33.6497C36.3478 33.6497 35.7013 33.7015 35.0197 33.7984C34.4299 33.8836 32.4669 34.2077 31.9541 34.9094C31.8271 35.0865 31.7753 35.292 31.807 35.4924C31.934 36.2626 33.0266 36.2626 33.4392 36.2626C33.9872 36.2643 34.6722 36.1891 35.3638 36.0554Z" fill="#010002"/>
<path d="M18.2065 36.286C18.5723 36.286 19.6816 36.286 19.8136 35.5158C19.8487 35.317 19.7969 35.1082 19.6699 34.9294C19.1754 34.2378 17.3528 33.902 16.8065 33.8168C16.1783 33.7166 15.5786 33.6648 15.0707 33.6648C14.613 33.6648 13.5371 33.6648 13.4352 34.4216C13.3399 35.1316 14.349 35.6929 16.4289 36.0955C17.0705 36.2208 17.6852 36.286 18.2065 36.286Z" fill="#010002"/>
<path d="M59.8736 10.9226C59.8736 10.9226 59.6965 10.5249 59.2571 9.92686C59.0399 9.6228 58.7542 9.27531 58.4001 8.89107C58.0526 8.48845 57.6132 8.11256 57.0903 7.79848C56.5724 7.46101 55.986 7.12522 55.3445 6.80947C54.7063 6.47869 53.9796 6.36007 53.2278 6.20136C52.9922 6.16628 52.7517 6.1479 52.5094 6.12451C53.0474 5.91736 53.5703 5.71521 54.0498 5.47965C54.566 5.25913 55.0488 5.03861 55.4815 4.81975C55.9142 4.58085 56.3034 4.42215 56.6275 4.23504C57.2774 3.88587 57.665 3.60187 57.665 3.60187L57.6783 3.59351C57.7034 3.57514 57.7251 3.55175 57.7435 3.52335C57.8287 3.39638 57.7936 3.22431 57.665 3.14078C57.665 3.14078 57.2791 2.8835 56.5657 2.58112C56.2099 2.43243 55.7705 2.24532 55.2626 2.13005C54.7548 2.01477 54.17 1.88446 53.5319 1.80929C52.8954 1.76585 52.197 1.73578 51.4653 1.7859C50.7386 1.86609 49.9634 1.95296 49.2033 2.21525C48.4415 2.47085 47.6847 2.8267 46.9613 3.28445C46.2212 3.69041 45.5229 4.22167 44.8045 4.66773C44.6742 4.76462 44.5456 4.86152 44.4153 4.95675C45.0417 5.51975 45.6398 6.11783 46.2212 6.74264C46.5119 7.0634 46.7976 7.39085 47.0799 7.72497C47.7198 8.4801 48.3162 9.27531 48.8808 10.1023C49.4422 10.2059 50.0035 10.3211 50.5414 10.4464C51.1947 10.5634 51.7977 10.8106 52.3975 10.9376C52.9922 11.0662 53.6104 11.0529 54.1667 11.133C54.7213 11.2183 55.2676 11.26 55.7956 11.27C56.0578 11.2817 56.3201 11.2717 56.5724 11.2634C56.8146 11.2784 57.0268 11.3302 57.254 11.3319C57.6917 11.3619 58.0993 11.377 58.4519 11.3703C59.1535 11.3669 59.6263 11.3101 59.6263 11.3101L59.6597 11.3068C59.6864 11.3035 59.7115 11.2968 59.7382 11.2851C59.8736 11.2233 59.9354 11.0612 59.8736 10.9226Z" fill="#010002"/>
<path d="M47.0315 12.655C45.8019 11.8715 44.4253 11.3168 43.0904 10.6937C41.6988 10.2059 40.3289 9.63784 38.9005 9.3388C37.5039 8.92448 36.0788 8.75909 34.7106 8.5085C33.3273 8.45671 31.9858 8.20945 30.7078 8.28463C30.0679 8.28964 29.4448 8.29466 28.8417 8.29967C28.2436 8.36315 27.6622 8.42664 27.1059 8.48511C25.9849 8.57365 24.9775 8.78081 24.0754 8.95121C23.6226 9.03474 23.2 9.11493 22.8091 9.18677C22.4281 9.2987 22.0773 9.40061 21.7599 9.49249C20.4785 9.84667 19.7451 10.0488 19.7451 10.0488C19.7451 10.0488 20.4384 9.73474 21.653 9.1851C21.9604 9.05312 22.3012 8.90611 22.6721 8.74573C23.0563 8.62377 23.4723 8.49012 23.9167 8.34979C24.8055 8.0591 25.8128 7.71662 26.9589 7.55791C27.5286 7.45266 28.1216 7.34407 28.7348 7.23214C29.3579 7.17868 30.0011 7.12522 30.6627 7.06842C31.9875 6.893 33.3941 7.02164 34.8526 7.0467C36.2877 7.26054 37.8079 7.34073 39.2814 7.77342C40.7883 8.07413 42.2418 8.64549 43.7153 9.15002C44.6425 9.5944 45.5663 10.0354 46.4701 10.5082C46.1577 10.0939 45.8654 9.66123 45.5312 9.26696C45.2489 8.93283 44.9649 8.60539 44.6692 8.28797C44.0912 7.66316 43.4914 7.06675 42.8616 6.50207C38.3475 2.44245 32.6357 -1.17622e-06 26.4076 -1.17622e-06C11.823 -1.17622e-06 0 13.3132 0 29.7371C0 30.9918 0.0918844 32.2197 0.225534 33.4342C1.85105 30.6226 12.9423 28.4474 26.4126 28.4474C39.8828 28.4474 50.9758 30.6226 52.5946 33.4309C52.7283 32.2163 52.8202 30.9884 52.8202 29.7338C52.8202 23.7797 51.2481 18.2482 48.5684 13.6022C48.0739 13.2698 47.5744 12.939 47.0315 12.655Z" fill="#010002"/>
<path d="M25.589 14.2969C25.721 13.901 26.2801 13.901 26.4121 14.2969L27.1859 16.6209C27.3563 17.1317 27.6432 17.5959 28.0241 17.9766C28.405 18.3573 28.8694 18.644 29.3803 18.8141L31.7031 19.5879C32.099 19.7199 32.099 20.279 31.7031 20.4109L29.3791 21.1848C28.8682 21.3551 28.4041 21.6421 28.0234 22.023C27.6427 22.4039 27.356 22.8682 27.1859 23.3792L26.4121 25.7019C26.3836 25.7886 26.3285 25.8641 26.2546 25.9176C26.1807 25.9712 26.0918 26 26.0006 26C25.9093 26 25.8204 25.9712 25.7465 25.9176C25.6726 25.8641 25.6175 25.7886 25.589 25.7019L24.8152 23.378C24.645 22.8672 24.3582 22.4031 23.9775 22.0225C23.5968 21.6418 23.1327 21.355 22.622 21.1848L20.2981 20.4109C20.2114 20.3825 20.1359 20.3274 20.0823 20.2535C20.0288 20.1796 20 20.0907 20 19.9994C20 19.9082 20.0288 19.8193 20.0823 19.7454C20.1359 19.6715 20.2114 19.6163 20.2981 19.5879L22.622 18.8141C23.1327 18.6438 23.5968 18.357 23.9775 17.9764C24.3582 17.5957 24.645 17.1316 24.8152 16.6209L25.589 14.2969Z" fill="white"/>
</g>
<defs>
<clipPath id="clip0_0_1">
<rect width="64" height="64" fill="white"/>
</clipPath>
</defs>
</svg>
